HIERARCHY
ROOT Yihan_28_06:Solving:Hips
{
	OFFSET 0.000000 0.000000 0.000000
	CHANNELS 6 Xposition Yposition Zposition Xrotation Yrotation Zrotation
	JOINT Yihan_28_06:Solving:Spine
	{
		OFFSET 0.000000 -10.933681 1.754050
		CHANNELS 6 Xposition Yposition Zposition Xrotation Yrotation Zrotation
		JOINT Yihan_28_06:Solving:Spine1
		{
			OFFSET 0.000000 -9.267541 1.634120
			CHANNELS 6 Xposition Yposition Zposition Xrotation Yrotation Zrotation
			JOINT Yihan_28_06:Solving:Spine2
			{
				OFFSET 0.000000 -9.374699 0.820182
				CHANNELS 6 Xposition Yposition Zposition Xrotation Yrotation Zrotation
				JOINT Yihan_28_06:Solving:Spine3
				{
					OFFSET 0.000000 -9.410507 0.000000
					CHANNELS 6 Xposition Yposition Zposition Xrotation Yrotation Zrotation
					JOINT Yihan_28_06:Solving:Neck
					{
						OFFSET 0.000000 -12.099224 -1.209920
						CHANNELS 6 Xposition Yposition Zposition Xrotation Yrotation Zrotation
						JOINT Yihan_28_06:Solving:Neck1
						{
							OFFSET 0.000000 -7.349789 -0.643021
							CHANNELS 6 Xposition Yposition Zposition Xrotation Yrotation Zrotation
							JOINT Yihan_28_06:Solving:Head
							{
								OFFSET 0.000000 -7.265778 -1.281152
								CHANNELS 6 Xposition Yposition Zposition Xrotation Yrotation Zrotation
								JOINT Yihan_28_06:Solving:HeadEnd
								{
									OFFSET 0.000000 -9.728081 0.000002
									CHANNELS 6 Xposition Yposition Zposition Xrotation Yrotation Zrotation
									End Site
									{
										OFFSET 0.000000 -9.728081 0.000002
									}
								}
							}
						}
					}
					JOINT Yihan_28_06:Solving:RightShoulder
					{
						OFFSET 0.000000 -8.642303 -5.270916
						CHANNELS 6 Xposition Yposition Zposition Xrotation Yrotation Zrotation
						JOINT Yihan_28_06:Solving:RightArm
						{
							OFFSET -17.619331 -0.000004 0.000000
							CHANNELS 6 Xposition Yposition Zposition Xrotation Yrotation Zrotation
							JOINT Yihan_28_06:Solving:RightForeArm
							{
								OFFSET -29.732449 -0.000008 0.000000
								CHANNELS 6 Xposition Yposition Zposition Xrotation Yrotation Zrotation
								JOINT Yihan_28_06:Solving:RightHand
								{
									OFFSET -23.617275 -0.000008 0.000000
									CHANNELS 6 Xposition Yposition Zposition Xrotation Yrotation Zrotation
									JOINT Yihan_28_06:Solving:RightHandThumb1
									{
										OFFSET -3.546165 2.953053 -2.636890
										CHANNELS 6 Xposition Yposition Zposition Xrotation Yrotation Zrotation
										End Site
										{
											OFFSET -5.198463 0.000000 -5.246530
										}
									}
									JOINT Yihan_28_06:Solving:RightHandMiddle1
									{
										OFFSET -9.456436 -0.000004 0.060618
										CHANNELS 6 Xposition Yposition Zposition Xrotation Yrotation Zrotation
										End Site
										{
											OFFSET -7.385803 -0.000004 0.000000
										}
									}
								}
							}
						}
					}
					JOINT Yihan_28_06:Solving:LeftShoulder
					{
						OFFSET 0.000000 -8.642303 -5.270916
						CHANNELS 6 Xposition Yposition Zposition Xrotation Yrotation Zrotation
						JOINT Yihan_28_06:Solving:LeftArm
						{
							OFFSET 17.619331 -0.000004 0.000000
							CHANNELS 6 Xposition Yposition Zposition Xrotation Yrotation Zrotation
							JOINT Yihan_28_06:Solving:LeftForeArm
							{
								OFFSET 29.732449 -0.000008 0.000000
								CHANNELS 6 Xposition Yposition Zposition Xrotation Yrotation Zrotation
								JOINT Yihan_28_06:Solving:LeftHand
								{
									OFFSET 23.617275 -0.000008 0.000000
									CHANNELS 6 Xposition Yposition Zposition Xrotation Yrotation Zrotation
									JOINT Yihan_28_06:Solving:LeftHandThumb1
									{
										OFFSET 3.546165 2.953053 -2.636890
										CHANNELS 6 Xposition Yposition Zposition Xrotation Yrotation Zrotation
										End Site
										{
											OFFSET 5.198463 0.000000 -5.246530
										}
									}
									JOINT Yihan_28_06:Solving:LeftHandMiddle1
									{
										OFFSET 9.456436 -0.000004 0.060618
										CHANNELS 6 Xposition Yposition Zposition Xrotation Yrotation Zrotation
										End Site
										{
											OFFSET 7.385803 -0.000004 0.000000
										}
									}
								}
							}
						}
					}
				}
			}
		}
	}
	JOINT Yihan_28_06:Solving:RightUpLeg
	{
		OFFSET -12.221851 0.000000 0.000000
		CHANNELS 6 Xposition Yposition Zposition Xrotation Yrotation Zrotation
		JOINT Yihan_28_06:Solving:RightLeg
		{
			OFFSET 0.000000 44.387260 -0.000006
			CHANNELS 6 Xposition Yposition Zposition Xrotation Yrotation Zrotation
			JOINT Yihan_28_06:Solving:RightFoot
			{
				OFFSET 0.000000 37.410240 -0.000006
				CHANNELS 6 Xposition Yposition Zposition Xrotation Yrotation Zrotation
				JOINT Yihan_28_06:Solving:RightForeFoot
				{
					OFFSET 0.000000 4.107742 -0.000000
					CHANNELS 6 Xposition Yposition Zposition Xrotation Yrotation Zrotation
					JOINT Yihan_28_06:Solving:RightToeBase
					{
						OFFSET 0.000000 0.000000 -16.087208
						CHANNELS 6 Xposition Yposition Zposition Xrotation Yrotation Zrotation
						JOINT Yihan_28_06:Solving:RightToeBaseEnd
						{
							OFFSET 0.000000 0.000000 -3.506769
							CHANNELS 6 Xposition Yposition Zposition Xrotation Yrotation Zrotation
							End Site
							{
								OFFSET 0.000000 -3.506767 0.000000
							}
						}
					}
				}
			}
		}
	}
	JOINT Yihan_28_06:Solving:LeftUpLeg
	{
		OFFSET 12.221851 0.000000 0.000000
		CHANNELS 6 Xposition Yposition Zposition Xrotation Yrotation Zrotation
		JOINT Yihan_28_06:Solving:LeftLeg
		{
			OFFSET 0.000000 44.387260 -0.000006
			CHANNELS 6 Xposition Yposition Zposition Xrotation Yrotation Zrotation
			JOINT Yihan_28_06:Solving:LeftFoot
			{
				OFFSET 0.000000 37.410240 -0.000006
				CHANNELS 6 Xposition Yposition Zposition Xrotation Yrotation Zrotation
				JOINT Yihan_28_06:Solving:LeftForeFoot
				{
					OFFSET 0.000000 4.107742 -0.000000
					CHANNELS 6 Xposition Yposition Zposition Xrotation Yrotation Zrotation
					JOINT Yihan_28_06:Solving:LeftToeBase
					{
						OFFSET 0.000000 0.000000 -16.087208
						CHANNELS 6 Xposition Yposition Zposition Xrotation Yrotation Zrotation
						JOINT Yihan_28_06:Solving:LeftToeBaseEnd
						{
							OFFSET 0.000000 0.000000 -3.932585
							CHANNELS 6 Xposition Yposition Zposition Xrotation Yrotation Zrotation
							End Site
							{
								OFFSET 0.000000 -3.932587 0.000000
							}
						}
					}
				}
			}
		}
	}
}
MOTION
Frames: 6
Frame Time: 0.041667
-0.894566 -84.106468 -89.555328 86.425170 38.351215 4.593411 -0.000007 -10.933667 1.754050 10.540660 -0.356807 2.380126 0.000000 -9.267548 1.634118 -1.075704 -0.273995 0.751900 -0.000001 -9.374691 0.820205 -2.297670 -3.934571 0.736161 -0.000006 -9.410529 -0.000006 0.656432 -0.352397 2.830204 -0.000001 -12.099263 -1.209918 -7.854558 -15.164133 4.099440 -0.000004 -7.349790 -0.643031 3.706634 -17.363290 -0.698282 0.000003 -7.265771 -1.281153 10.557052 -1.180830 -0.435123 0.000003 -9.728081 -0.000003 0.000001 0.000000 -0.000001 -0.000001 -8.642319 -5.270926 -0.000001 10.872000 6.524597 -17.619331 0.000007 -0.000010 -8.400942 -53.607508 -83.581032 -29.732426 -0.000006 0.000010 17.575969 -20.963314 6.465418 -23.617279 -0.000003 0.000003 0.394427 2.717431 -8.261659 -3.546170 2.953028 -2.636890 -0.000003 -0.000005 0.000003 -9.456451 -0.000005 0.060618 0.000000 0.000001 -0.000000 -0.000002 -8.642319 -5.270926 -0.000005 -16.503325 -13.033385 17.619331 0.000004 -0.000005 -47.596037 -3.732207 73.192471 29.732464 0.000002 0.000008 -275.429783 192.632003 246.507565 23.617281 -0.000016 -0.000001 -0.664537 3.482340 10.811175 3.546142 2.953039 -2.636898 -0.000000 0.000000 0.000009 9.456428 -0.000006 0.060612 0.000000 0.000002 0.000008 -12.221853 0.000002 -0.000004 9.575367 8.276052 -3.860959 0.000012 44.387249 -0.000012 1.411814 0.000010 -0.000000 0.000006 37.410240 0.000004 -3.342682 11.624048 3.107516 -0.000011 4.107742 0.000015 0.000000 -0.000003 0.000000 -0.000009 0.000002 -16.087214 14.811520 -0.000003 0.000002 0.000004 -0.000008 -3.506765 0.000001 -0.000003 0.000002 12.221839 0.000008 0.000009 -1.790392 -8.453447 -8.533884 0.000001 44.387268 -0.000014 5.799806 0.000005 -0.000001 -0.000001 37.410259 0.000001 0.600982 4.329219 11.244568 0.000005 4.107735 -0.000001 -0.000001 -0.000006 -0.000001 0.000002 0.000022 -16.087206 -5.969511 0.000001 -0.000001 -0.000003 -0.000008 -3.932594 -0.000000 0.000002 -0.000001 
-0.894145 -84.078827 -89.552498 86.449595 38.476262 4.600673 0.000014 -10.933693 1.754050 10.536445 -0.353999 2.403002 0.000002 -9.267538 1.634142 -1.074510 -0.276819 0.757603 0.000007 -9.374689 0.820175 -2.300508 -3.926870 0.740400 -0.000003 -9.410544 0.000011 0.647661 -0.355592 2.825888 0.000005 -12.099245 -1.209929 -7.855198 -15.155218 4.131218 0.000008 -7.349763 -0.643042 3.699356 -17.378943 -0.690253 -0.000006 -7.265822 -1.281161 10.555291 -1.183270 -0.421699 -0.000001 -9.728104 -0.000000 -0.000000 -0.000000 0.000000 0.000006 -8.642338 -5.270924 -0.000003 10.889734 6.539895 -17.619326 -0.000003 -0.000006 -8.515118 -53.477096 -83.585628 -29.732458 -0.000016 0.000010 17.536673 -20.921469 6.437961 -23.617300 -0.000030 0.000004 0.393841 2.753261 -8.143595 -3.546141 2.953039 -2.636895 -0.000009 -0.000007 0.000002 -9.456435 -0.000004 0.060609 -0.000001 0.000001 0.000002 0.000007 -8.642323 -5.270926 -0.000006 -16.243774 -12.789815 17.619339 0.000008 -0.000006 -47.592331 -4.271204 72.518099 29.732460 0.000000 -0.000016 -277.955095 196.505307 243.808629 23.617283 -0.000002 -0.000002 -0.624412 3.361055 10.530922 3.546158 2.953059 -2.636884 0.000002 0.000005 0.000000 9.456443 0.000023 0.060618 0.000000 -0.000001 -0.000001 -12.221836 -0.000022 0.000001 9.544688 8.187701 -3.851203 0.000005 44.387257 -0.000017 1.409416 -0.000006 -0.000000 0.000012 37.410255 -0.000011 -3.333837 11.605037 3.073687 0.000004 4.107742 0.000010 -0.000000 -0.000002 0.000000 0.000014 0.000015 -16.087202 14.808478 0.000004 0.000001 -0.000002 0.000015 -3.506776 0.000001 -0.000006 0.000003 12.221865 -0.000026 -0.000001 -1.815185 -8.504402 -8.546390 0.000006 44.387260 -0.000001 5.879881 0.000005 -0.000000 -0.000003 37.410263 -0.000018 0.512407 4.242357 11.248718 -0.000007 4.107742 -0.000008 -0.000000 -0.000005 0.000000 0.000005 0.000009 -16.087208 -5.911968 0.000002 -0.000000 -0.000002 -0.000008 -3.932594 -0.000000 0.000001 -0.000000 
-0.900104 -84.048454 -89.549232 86.465414 38.577448 4.611043 0.000007 -10.933656 1.754051 10.530386 -0.357663 2.441210 0.000001 -9.267562 1.634123 -1.073689 -0.275582 0.758974 -0.000001 -9.374719 0.820166 -2.304029 -3.893791 0.739608 0.000006 -9.410516 -0.000005 0.645192 -0.350823 2.813197 0.000007 -12.099239 -1.209932 -7.855329 -15.139317 4.155766 0.000007 -7.349781 -0.643024 3.703564 -17.406360 -0.681004 0.000002 -7.265783 -1.281160 10.553596 -1.187354 -0.409043 0.000003 -9.728058 0.000016 0.000001 0.000000 0.000001 0.000003 -8.642273 -5.270927 -0.000002 10.904546 6.551178 -17.619341 0.000004 0.000005 -8.632049 -53.309077 -83.596290 -29.732470 0.000002 -0.000017 17.362512 -20.902703 6.365059 -23.617329 -0.000014 -0.000020 0.395730 2.822099 -7.985443 -3.546171 2.953043 -2.636877 0.000006 -0.000000 0.000002 -9.456451 -0.000003 0.060610 0.000004 0.000001 -0.000000 0.000002 -8.642288 -5.270926 -0.000009 -16.039251 -12.620857 17.619333 -0.000014 -0.000002 -47.789164 -5.250099 72.105337 29.732454 -0.000010 0.000009 -280.449398 199.122663 240.621226 23.617262 -0.000019 -0.000004 -0.484265 2.628039 10.444824 3.546157 2.953047 -2.636878 0.000002 0.000003 -0.000000 9.456457 -0.000002 0.060617 0.000002 -0.000001 -0.000002 -12.221846 0.000002 0.000010 9.536828 8.120587 -3.845788 -0.000024 44.387268 -0.000008 1.393493 0.000002 -0.000000 -0.000002 37.410236 -0.000017 -3.326715 11.580932 3.069300 -0.000024 4.107750 0.000004 0.000001 -0.000006 0.000001 0.000014 0.000007 -16.087214 14.818843 0.000002 -0.000000 -0.000015 -0.000008 -3.506774 0.000001 -0.000006 0.000002 12.221861 0.000013 0.000003 -1.829468 -8.523655 -8.556654 0.000003 44.387249 -0.000014 5.962485 0.000006 0.000001 -0.000001 37.410248 -0.000031 0.421276 4.145089 11.255265 -0.000000 4.107742 -0.000005 -0.000001 -0.000006 0.000000 -0.000003 0.000017 -16.087196 -5.867961 -0.000004 -0.000000 0.000002 -0.000007 -3.932587 0.000000 0.000004 -0.000000 
-0.905737 -84.011597 -89.547394 86.467750 38.697601 4.625333 -0.000000 -10.933652 1.754054 10.522679 -0.356272 2.472170 0.000006 -9.267555 1.634125 -1.072777 -0.276555 0.762423 0.000002 -9.374684 0.820189 -2.304715 -3.870080 0.738826 0.000003 -9.410534 -0.000024 0.642838 -0.349141 2.805564 0.000006 -12.099275 -1.209918 -7.859016 -15.136077 4.188529 0.000006 -7.349779 -0.643002 3.721963 -17.426328 -0.673712 -0.000000 -7.265763 -1.281152 10.552948 -1.190506 -0.394488 0.000001 -9.728065 -0.000017 0.000002 -0.000000 -0.000000 0.000015 -8.642311 -5.270928 -0.000003 10.915487 6.561884 -17.619335 0.000009 0.000001 -8.786374 -53.149353 -83.644921 -29.732437 0.000000 0.000007 17.375325 -20.816870 6.345224 -23.617315 -0.000021 -0.000009 0.402861 2.864696 -8.008029 -3.546136 2.953037 -2.636871 0.000004 -0.000000 -0.000001 -9.456444 -0.000003 0.060632 0.000004 0.000001 0.000000 0.000009 -8.642311 -5.270921 -0.000004 -15.825702 -12.464111 17.619349 -0.000016 -0.000006 -48.003297 -6.305509 71.704876 29.732410 -0.000016 0.000004 -283.169644 201.352980 237.273723 23.617294 -0.000022 -0.000000 -0.331250 1.878292 10.003902 3.546143 2.953033 -2.636885 -0.000004 -0.000003 -0.000000 9.456454 -0.000010 0.060618 0.000000 -0.000001 0.000003 -12.221850 0.000017 0.000005 9.532415 8.008668 -3.830238 0.000002 44.387272 0.000013 1.381508 0.000002 0.000000 -0.000008 37.410240 0.000005 -3.313532 11.588297 3.059112 -0.000003 4.107750 -0.000003 0.000000 -0.000000 0.000001 -0.000006 0.000023 -16.087206 14.787535 0.000005 -0.000002 -0.000007 0.000000 -3.506772 0.000001 -0.000004 0.000000 12.221855 0.000017 0.000003 -1.822172 -8.546204 -8.559235 0.000008 44.387268 -0.000019 6.036615 -0.000001 -0.000000 -0.000007 37.410263 0.000002 0.333053 4.036137 11.249308 -0.000004 4.107742 0.000000 0.000000 -0.000002 -0.000000 -0.000008 0.000027 -16.087200 -5.812066 -0.000003 -0.000001 -0.000007 0.000000 -3.932587 0.000000 0.000002 -0.000000 
-0.907243 -83.977249 -89.545662 86.467920 38.834676 4.641706 0.000000 -10.933681 1.754060 10.520076 -0.351252 2.495625 0.000001 -9.267549 1.634126 -1.069752 -0.278124 0.766608 -0.000003 -9.374697 0.820192 -2.307306 -3.852209 0.740907 0.000004 -9.410513 -0.000005 0.634141 -0.346138 2.796079 -0.000006 -12.099206 -1.209955 -7.850578 -15.134721 4.222161 0.000002 -7.349787 -0.643049 3.727777 -17.448147 -0.661547 -0.000006 -7.265787 -1.281139 10.559617 -1.195157 -0.374052 -0.000006 -9.728065 0.000005 -0.000002 -0.000000 -0.000001 -0.000013 -8.642277 -5.270937 -0.000004 10.959237 6.556763 -17.619339 -0.000001 0.000004 -8.980661 -53.014989 -83.681634 -29.732462 -0.000015 0.000011 17.080194 -20.764847 6.216874 -23.617285 -0.000010 -0.000007 0.411135 2.907981 -8.050498 -3.546175 2.953031 -2.636892 0.000001 0.000005 -0.000003 -9.456438 -0.000005 0.060617 0.000003 0.000002 -0.000002 -0.000014 -8.642281 -5.270937 -0.000010 -15.608418 -12.297861 17.619331 0.000006 0.000002 -48.221412 -7.247551 71.207481 29.732458 0.000002 -0.000016 -286.132744 203.073627 233.570231 23.617285 -0.000003 -0.000000 -0.180696 1.034785 9.906395 3.546156 2.953039 -2.636881 -0.000004 -0.000003 -0.000002 9.456465 -0.000009 0.060620 0.000003 -0.000001 -0.000003 -12.221851 -0.000006 0.000010 9.512660 7.913204 -3.809584 0.000012 44.387257 0.000010 1.396249 0.000002 -0.000000 -0.000001 37.410225 0.000015 -3.318145 11.569756 3.037894 -0.000007 4.107742 -0.000003 -0.000001 -0.000001 -0.000000 -0.000000 -0.000001 -16.087221 14.783260 0.000000 -0.000000 -0.000013 0.000000 -3.506771 0.000001 -0.000004 0.000001 12.221857 -0.000016 0.000009 -1.817152 -8.595243 -8.563320 -0.000002 44.387260 0.000006 6.112104 0.000001 0.000001 -0.000005 37.410236 -0.000020 0.244631 3.936899 11.243236 -0.000005 4.107750 0.000014 0.000001 0.000001 -0.000000 0.000004 0.000004 -16.087208 -5.758427 -0.000000 -0.000000 0.000002 -0.000007 -3.932594 0.000001 -0.000005 -0.000000 
-0.910954 -83.941422 -89.544655 86.459164 38.968773 4.661526 0.000013 -10.933701 1.754045 10.520209 -0.347720 2.521129 0.000000 -9.267550 1.634128 -1.066885 -0.278824 0.771206 0.000005 -9.374679 0.820166 -2.307401 -3.821781 0.741846 0.000006 -9.410519 -0.000011 0.624608 -0.338963 2.781039 0.000008 -12.099214 -1.209930 -7.843893 -15.139615 4.241285 0.000007 -7.349795 -0.643018 3.738529 -17.472862 -0.624642 -0.000002 -7.265777 -1.281153 10.578998 -1.200611 -0.355106 0.000003 -9.728073 -0.000021 -0.000001 0.000000 -0.000001 0.000007 -8.642292 -5.270927 -0.000000 10.963634 6.553569 -17.619337 0.000005 0.000024 -9.129307 -52.894942 -83.709480 -29.732435 -0.000005 0.000015 16.946010 -20.713718 6.151044 -23.617290 -0.000016 -0.000007 0.414873 2.951562 -8.004611 -3.546144 2.953051 -2.636858 -0.000007 -0.000003 -0.000002 -9.456443 0.000002 0.060637 0.000003 -0.000001 0.000001 0.000001 -8.642288 -5.270921 -0.000005 -15.390090 -12.118147 17.619339 0.000004 0.000027 -48.480106 -8.229099 70.722948 29.732433 -0.000009 -0.000015 -289.226409 204.270481 229.686558 23.617290 -0.000024 -0.000001 -0.032782 0.185933 10.002401 3.546184 2.953094 -2.636882 -0.000005 0.000002 -0.000006 9.456463 0.000055 0.060625 -0.000004 0.000001 -0.000004 -12.221841 -0.000024 -0.000011 9.504372 7.869863 -3.788298 -0.000004 44.387272 0.000008 1.412933 -0.000001 0.000001 -0.000011 37.410252 -0.000008 -3.320586 11.499342 3.021564 0.000013 4.107750 -0.000002 -0.000001 -0.000003 0.000000 -0.000007 0.000019 -16.087198 14.792583 0.000006 -0.000002 0.000000 0.000007 -3.506776 0.000000 0.000001 -0.000000 12.221854 -0.000018 0.000009 -1.802381 -8.637005 -8.564307 -0.000001 44.387280 -0.000001 6.186438 0.000001 0.000000 -0.000005 37.410240 -0.000005 0.159877 3.831813 11.240330 0.000000 4.107750 -0.000010 -0.000000 -0.000000 -0.000001 -0.000001 0.000011 -16.087212 -5.700533 -0.000002 -0.000000 -0.000008 0.000000 -3.932579 0.000000 -0.000001 -0.000000 
